<svg xmlns="http://www.w3.org/2000/svg" viewBox="0 0 512 512">
  <defs>
    <linearGradient id="cielo" x1="0" y1="0" x2="0.35" y2="1">
      <stop offset="0" stop-color="#3c7fd0"/><stop offset="0.75" stop-color="#1f4f8f"/><stop offset="1" stop-color="#173d6e"/>
    </linearGradient>
    <radialGradient id="alone" cx="0.5" cy="0.5" r="0.5">
      <stop offset="0" stop-color="#fff3c4" stop-opacity="0.95"/><stop offset="1" stop-color="#fff3c4" stop-opacity="0"/>
    </radialGradient>
    <linearGradient id="raggioS" x1="1" y1="0" x2="0" y2="0">
      <stop offset="0" stop-color="#ffe08a" stop-opacity="0.85"/><stop offset="1" stop-color="#ffe08a" stop-opacity="0"/>
    </linearGradient>
    <linearGradient id="raggioD" x1="0" y1="0" x2="1" y2="0">
      <stop offset="0" stop-color="#ffe08a" stop-opacity="0.85"/><stop offset="1" stop-color="#ffe08a" stop-opacity="0"/>
    </linearGradient>
  </defs>
  <rect width="512" height="512" rx="112" fill="url(#cielo)"/>
  <g transform="translate(256 262) scale(0.94) translate(-256 -262)">
    <polygon points="256,166 34,104 34,232" fill="url(#raggioS)"/>
    <polygon points="256,166 478,104 478,232" fill="url(#raggioD)"/>
    <circle cx="256" cy="168" r="66" fill="url(#alone)"/>
    <path d="M150 432 q26 -16 53 0 t53 0 t53 0 t53 0 v14 H150z" fill="#ffffff" opacity="0.28"/>
    <polygon points="214.0,200 298.0,200 330.0,420 182.0,420" fill="#ffffff"/>
    <polygon points="206.1,254 305.9,254 310.8,288 201.2,288" fill="#e2574c"/>
    <polygon points="193.9,338 318.1,338 323.0,372 189.0,372" fill="#e2574c"/>
    <rect x="236" y="384" width="40" height="36" rx="20" ry="20" fill="#1f4f8f" opacity="0.9"/>
    <rect x="166" y="414" width="180" height="20" rx="10" fill="#ffffff"/>
    <rect x="194" y="190" width="124" height="16" rx="5" fill="#ffffff"/>
    <rect x="224" y="140" width="64" height="52" rx="6" fill="#ffd45e"/>
    <rect x="244" y="140" width="6" height="52" fill="#1f4f8f" opacity="0.55"/>
    <rect x="262" y="140" width="6" height="52" fill="#1f4f8f" opacity="0.55"/>
    <polygon points="212,144 256,104 300,144" fill="#ffffff"/>
    <circle cx="256" cy="99" r="8" fill="#ffffff"/>
  </g>
</svg>